<svg id="visual" viewBox="0 0 960 540" width="960" height="540" xmlns="http://www.w3.org/2000/svg" xmlns:xlink="http://www.w3.org/1999/xlink" version="1.1"><path d="M377 0L377.2 15C377.3 30 377.7 60 371.7 90C365.7 120 353.3 150 345 180C336.7 210 332.3 240 332 270C331.7 300 335.3 330 349.8 360C364.3 390 389.7 420 403.7 450C417.7 480 420.3 510 421.7 525L423 540L0 540L0 525C0 510 0 480 0 450C0 420 0 390 0 360C0 330 0 300 0 270C0 240 0 210 0 180C0 150 0 120 0 90C0 60 0 30 0 15L0 0Z" fill="#e6b3a6"></path><path d="M325 0L322.3 15C319.7 30 314.3 60 316.2 90C318 120 327 150 331.8 180C336.7 210 337.3 240 335.5 270C333.7 300 329.3 330 329.3 360C329.3 390 333.7 420 340.2 450C346.7 480 355.3 510 359.7 525L364 540L0 540L0 525C0 510 0 480 0 450C0 420 0 390 0 360C0 330 0 300 0 270C0 240 0 210 0 180C0 150 0 120 0 90C0 60 0 30 0 15L0 0Z" fill="#e6a597"></path><path d="M236 0L234.8 15C233.7 30 231.3 60 233 90C234.7 120 240.3 150 246.7 180C253 210 260 240 267.5 270C275 300 283 330 286.5 360C290 390 289 420 279.3 450C269.7 480 251.3 510 242.2 525L233 540L0 540L0 525C0 510 0 480 0 450C0 420 0 390 0 360C0 330 0 300 0 270C0 240 0 210 0 180C0 150 0 120 0 90C0 60 0 30 0 15L0 0Z" fill="#e69788"></path><path d="M196 0L196 15C196 30 196 60 190.8 90C185.7 120 175.3 150 180.2 180C185 210 205 240 208.5 270C212 300 199 330 199.7 360C200.3 390 214.7 420 218.5 450C222.3 480 215.7 510 212.3 525L209 540L0 540L0 525C0 510 0 480 0 450C0 420 0 390 0 360C0 330 0 300 0 270C0 240 0 210 0 180C0 150 0 120 0 90C0 60 0 30 0 15L0 0Z" fill="#e5897a"></path><path d="M152 0L147 15C142 30 132 60 130.8 90C129.7 120 137.3 150 138 180C138.7 210 132.3 240 129.3 270C126.3 300 126.7 330 127.5 360C128.3 390 129.7 420 126.7 450C123.7 480 116.3 510 112.7 525L109 540L0 540L0 525C0 510 0 480 0 450C0 420 0 390 0 360C0 330 0 300 0 270C0 240 0 210 0 180C0 150 0 120 0 90C0 60 0 30 0 15L0 0Z" fill="#e4796d"></path><path d="M43 0L43.8 15C44.7 30 46.3 60 51.2 90C56 120 64 150 66.8 180C69.7 210 67.3 240 62.3 270C57.3 300 49.7 330 45.2 360C40.7 390 39.3 420 49.5 450C59.7 480 81.3 510 92.2 525L103 540L0 540L0 525C0 510 0 480 0 450C0 420 0 390 0 360C0 330 0 300 0 270C0 240 0 210 0 180C0 150 0 120 0 90C0 60 0 30 0 15L0 0Z" fill="#e26961"></path></svg>